<?xml version="1.0" encoding="utf-8"?>
<!-- Generator: Adobe Illustrator 16.0.0, SVG Export Plug-In . SVG Version: 6.00 Build 0)  -->
<!DOCTYPE svg PUBLIC "-//W3C//DTD SVG 1.1//EN" "http://www.w3.org/Graphics/SVG/1.1/DTD/svg11.dtd">
<svg version="1.1" id="图层_1" xmlns="http://www.w3.org/2000/svg" xmlns:xlink="http://www.w3.org/1999/xlink" x="0px" y="0px"
	 width="841.89px" height="595.28px" viewBox="0 0 841.89 595.28" enable-background="new 0 0 841.89 595.28" xml:space="preserve">
<g>
	<path fill="#00B8EE" d="M313.583,144.791l-0.03,137.348l111.009,59.302V204.277L313.583,144.791z M404.148,304.928l-71.541-39.011
		l0.223-86.724l71.4,39.032L404.148,304.928z"/>
	<polygon fill="#00B8EE" points="520.379,250.795 520.266,268.125 450.268,305.994 450.391,217.542 520.266,179.447 
		520.266,195.165 539.811,182.867 539.811,143.973 428.734,204.277 428.734,341.459 539.811,282.105 539.811,240.063 	"/>
	<polygon fill="#00B8EE" points="313.529,140.358 334.817,152.031 445.553,89.667 426.556,79.427 	"/>
	<polygon fill="#00B8EE" points="406.732,111.529 383.466,124.633 476.398,174.472 500.742,161.355 	"/>
</g>
</svg>
