<?xml version="1.0" encoding="UTF-8" standalone="no"?>
<!DOCTYPE svg PUBLIC "-//W3C//DTD SVG 1.0//EN" "http://www.w3.org/TR/2001/REC-SVG-20010904/DTD/svg10.dtd">
<!-- Generated by Microsoft Visio 11.0, SVG Export, v1.0 Drawing29.svg Page-1 -->
<svg xmlns="http://www.w3.org/2000/svg" xmlns:v="http://schemas.microsoft.com/visio/2003/SVGExtensions/" width="2.37794in"
		height="2.75033in" viewBox="0 0 171.212 198.024" xml:space="preserve" color-interpolation-filters="sRGB" class="st2">
	<v:documentProperties v:langID="1033" v:metric="true" v:viewMarkup="false"/>

	<style type="text/css">
	<![CDATA[
		.st1 {fill:#00b8ee;stroke:none;stroke-linecap:butt;stroke-width:0.75}
		.st2 {fill:none;fill-rule:evenodd;font-size:12;overflow:visible;stroke-linecap:square;stroke-miterlimit:3}
	]]>
	</style>

	<g v:mID="0" v:index="1" v:groupContext="foregroundPage">
		<title>Page-1</title>
		<v:pageProperties v:drawingScale="0.0393701" v:pageScale="0.0393701" v:drawingUnits="24" v:shadowOffsetX="9"
				v:shadowOffsetY="-9"/>
		<g id="group1-1" transform="translate(0.75,-0.75)" v:mID="1" v:groupContext="group">
			<title>Sheet.1</title>
			<g id="group2-2" v:mID="2" v:groupContext="group">
				<title>Sheet.2</title>
				<g id="shape3-3" v:mID="3" v:groupContext="shape" transform="translate(0.018,-0.0135)">
					<title>Sheet.3</title>
					<path d="M0.02 50.54 L0 153.55 L83.26 198.02 L83.26 95.15 L0.02 50.54 Z M67.95 170.64 L14.29 141.38 L14.46 76.34
								 L68.01 105.61 L67.95 170.64 Z" class="st1"/>
				</g>
				<g id="shape4-5" v:mID="4" v:groupContext="shape" transform="translate(86.4038,0)">
					<title>Sheet.4</title>
					<path d="M68.73 130.03 L68.65 143.02 L16.15 171.43 L16.24 105.09 L68.65 76.52 L68.65 88.3 L83.31 79.08 L83.31
								 49.91 L0 95.14 L0 198.02 L83.31 153.51 L83.31 121.98 L68.73 130.03 Z" class="st1"/>
				</g>
				<g id="shape5-7" v:mID="5" v:groupContext="shape" transform="translate(-8.47322E-013,-142.071)">
					<title>Sheet.5</title>
					<path d="M0 189.27 L15.97 198.02 L99.02 151.25 L84.77 143.57 L0 189.27 Z" class="st1"/>
				</g>
				<g id="shape6-9" v:mID="6" v:groupContext="shape" transform="translate(52.4527,-125.24)">
					<title>Sheet.6</title>
					<path d="M17.45 150.82 L0 160.64 L69.7 198.02 L87.96 188.19 L17.45 150.82 Z" class="st1"/>
				</g>
			</g>
		</g>
	</g>
</svg>
